Coordinates
version=1
nRows=26
nColumns=30
inDegrees=yes

Units are S.I. units (second, meters, Newtons, ...)
Angles are in degrees.

endheader
time	floatyaw	floatroll	floatpitch	floatx	floaty	floatz	pro_sup_l	deviation_l	flexion_l	cmc_flexion_l	cmc_abduction_l	mp_flexion_l	ip_flexion_l	2mcp_flexion_l	2mcp_abduction_l	2pm_flexion_l	2md_flexion_l	3mcp_flexion_l	3mcp_abduction_l	3pm_flexion_l	3md_flexion_l	4mcp_flexion_l	4mcp_abduction_l	4pm_flexion_l	4md_flexion_l	5mcp_flexion_l	5mcp_abduction_l	5pm_flexion_l	5md_flexion_l
-1.495000	-160.147433	-5.066637	-73.570646	0.080355	-0.182155	-0.016304	101.027301	5.100567	-0.671898	14.310892	12.289042	-25.819699	-42.152508	28.933352	6.760801	43.995842	30.084335	24.893227	4.194454	44.988498	29.732625	13.816440	-4.185411	52.397710	36.118907	1.486326	-8.497714	61.739370	43.304460
-1.485000	-160.147433	-5.066637	-73.570646	0.080351	-0.182152	-0.016304	101.030529	5.103800	-0.666059	14.297384	12.297622	-25.835235	-42.142687	28.924246	6.757799	44.029956	30.112297	24.875358	4.196338	45.003383	29.749421	13.805132	-4.188857	52.412232	36.128253	1.475886	-8.497175	61.744063	43.310024
-1.475000	-160.147433	-5.066637	-73.570646	0.080350	-0.182148	-0.016305	101.039273	5.110789	-0.659112	14.288892	12.292596	-25.852549	-42.135274	28.911942	6.755523	44.055281	30.134846	24.856751	4.197287	45.013410	29.763346	13.792987	-4.191425	52.419836	36.134701	1.465055	-8.492338	61.741169	43.310443
-1.465000	-160.147433	-5.066637	-73.570646	0.080352	-0.182142	-0.016305	101.049960	5.119457	-0.650986	14.282803	12.279551	-25.872149	-42.129715	28.898539	6.753845	44.071614	30.150345	24.840384	4.196623	45.015323	29.771483	13.781035	-4.192662	52.418092	36.136865	1.452115	-8.483779	61.729731	43.306101
-1.455000	-160.147433	-5.066637	-73.570646	0.080355	-0.182135	-0.016306	101.057315	5.126477	-0.642439	14.275479	12.269275	-25.893504	-42.128483	28.888220	6.752552	44.080895	30.158452	24.828742	4.194341	45.009940	29.773150	13.770447	-4.192662	52.408979	36.135167	1.436238	-8.473220	61.713083	43.299087
-1.445000	-160.147433	-5.066637	-73.570646	0.080358	-0.182130	-0.016307	101.057155	5.128911	-0.634706	14.264017	12.272911	-25.914465	-42.135258	28.885134	6.751618	44.085771	30.159930	24.822299	4.191264	45.002180	29.770525	13.761990	-4.191965	52.398138	36.131836	1.418426	-8.463201	61.697620	43.292577
-1.435000	-160.147433	-5.066637	-73.570646	0.080358	-0.182127	-0.016309	101.048405	5.125615	-0.628777	14.247534	12.296419	-25.931638	-42.152104	28.891278	6.751230	44.087734	30.156022	24.819140	4.188703	44.998398	29.767586	13.755550	-4.191232	52.391898	36.129856	1.401005	-8.456392	61.690080	43.289869
-1.425000	-160.147433	-5.066637	-73.570646	0.080355	-0.182126	-0.016312	101.033592	5.117722	-0.624907	14.227472	12.336762	-25.941802	-42.177651	28.905644	6.751663	44.085981	30.147610	24.816168	4.187845	45.002344	29.767667	13.750182	-4.190837	52.393810	36.131335	1.386211	-8.454615	61.694661	43.293254
-1.415000	-160.147433	-5.066637	-73.570646	0.080350	-0.182127	-0.016315	101.017986	5.108191	-0.622708	14.206967	12.382099	-25.943565	-42.207176	28.924831	6.753198	44.078221	30.134991	24.811079	4.189229	45.012584	29.771362	13.744782	-4.190662	52.402942	36.136323	1.375191	-8.458065	61.711337	43.303066
-1.405000	-160.147433	-5.066637	-73.570646	0.080345	-0.182129	-0.016318	101.007814	5.100746	-0.621648	14.189652	12.416744	-25.938227	-42.234236	28.944476	6.756135	44.063266	30.118743	24.803708	4.192548	45.023454	29.776439	13.738860	-4.190229	52.415014	36.142963	1.368075	-8.465263	61.736096	43.317424
-1.395000	-160.147433	-5.066637	-73.570646	0.080342	-0.182130	-0.016320	101.007921	5.098554	-0.621491	14.178207	12.428786	-25.929228	-42.252876	28.960753	6.760754	44.043505	30.101037	24.795835	4.196853	45.029082	29.779931	13.732747	-4.189076	52.425409	36.148894	1.364653	-8.473840	61.762832	43.332933
-1.385000	-160.147433	-5.066637	-73.570646	0.080342	-0.182131	-0.016320	101.019499	5.102917	-0.622343	14.172959	12.416277	-25.920433	-42.259461	28.971517	6.767156	44.025073	30.086011	24.789726	4.201001	45.027709	29.780765	13.727148	-4.187041	52.431890	36.152864	1.364868	-8.481649	61.785773	43.346064
-1.375000	-160.147433	-5.066637	-73.570646	0.080345	-0.182131	-0.016318	101.038997	5.112486	-0.624428	14.171127	12.388374	-25.914203	-42.253668	28.976936	6.774986	44.015136	30.078395	24.786617	4.204106	45.023263	29.780820	13.722609	-4.184301	52.435284	36.155347	1.368806	-8.487563	61.801184	43.354411
-1.365000	-160.147433	-5.066637	-73.570646	0.080347	-0.182132	-0.016315	101.059286	5.123624	-0.627887	14.167586	12.360778	-25.910451	-42.238615	28.979446	6.783228	44.017907	30.080933	24.786241	4.205719	45.023045	29.783519	13.719472	-4.181219	52.437965	36.157765	1.376486	-8.491621	61.807727	43.357196
-1.355000	-160.147433	-5.066637	-73.570646	0.080348	-0.182134	-0.016311	101.072999	5.132104	-0.632708	14.157279	12.348026	-25.907310	-42.220139	28.982867	6.790262	44.031988	30.092301	24.787522	4.205707	45.033115	29.790997	13.718192	-4.178155	52.441522	36.161038	1.387713	-8.494574	61.805869	43.355001
-1.345000	-160.147433	-5.066637	-73.570646	0.080346	-0.182138	-0.016308	101.076337	5.135330	-0.638661	14.138058	12.357059	-25.902925	-42.205135	28.990765	6.794333	44.050706	30.107013	24.789606	4.204013	45.054539	29.802088	13.719406	-4.175385	52.445488	36.164725	1.401896	-8.497158	61.797236	43.349269
-1.335000	-160.147433	-5.066637	-73.570646	0.080342	-0.182142	-0.016307	101.070839	5.133655	-0.645106	14.112036	12.385577	-25.897099	-42.199239	29.004717	6.794359	44.065228	30.117623	24.792254	4.200592	45.082994	29.812778	13.723379	-4.173122	52.448077	36.167462	1.417608	-8.499522	61.784536	43.342107
-1.325000	-160.147433	-5.066637	-73.570646	0.080339	-0.182146	-0.016309	101.061817	5.129804	-0.650864	14.084443	12.425490	-25.891778	-42.204843	29.023446	6.790631	44.068713	30.118128	24.795484	4.195603	45.111717	29.818846	13.729222	-4.171562	52.448201	36.168282	1.432091	-8.501074	61.771718	43.336269
-1.315000	-160.147433	-5.066637	-73.570646	0.080336	-0.182147	-0.016312	101.054643	5.126834	-0.654432	14.060739	12.468199	-25.890181	-42.220561	29.043484	6.784928	44.059285	30.106703	24.799053	4.189648	45.135405	29.818638	13.734732	-4.170837	52.446951	36.167591	1.441433	-8.500850	61.763515	43.334701
-1.305000	-160.147433	-5.066637	-73.570646	0.080333	-0.182145	-0.016315	101.051652	5.126162	-0.654663	14.043804	12.507720	-25.895120	-42.242453	29.061032	6.779873	44.040388	30.086311	24.802398	4.183777	45.152374	29.813923	13.737248	-4.170925	52.447216	36.166990	1.441971	-8.498200	61.763894	43.339348
-1.295000	-160.147433	-5.066637	-73.570646	0.080331	-0.182142	-0.016317	101.051700	5.127058	-0.651502	14.032773	12.540418	-25.907330	-42.266010	29.073772	6.777893	44.018641	30.063065	24.804939	4.179134	45.164098	29.808503	13.735020	-4.171629	52.451814	36.168194	1.432412	-8.493405	61.774086	43.349868
-1.285000	-160.147433	-5.066637	-73.570646	0.080328	-0.182138	-0.016318	101.052063	5.127665	-0.646177	14.023949	12.563465	-25.924659	-42.287529	29.081417	6.780349	44.000668	30.043550	24.806231	4.176449	45.173263	29.805980	13.728012	-4.172656	52.461650	36.172084	1.415181	-8.487846	61.791606	43.363379
-1.275000	-160.147433	-5.066637	-73.570646	0.080326	-0.182135	-0.016319	101.050765	5.126477	-0.640624	14.013009	12.574547	-25.942721	-42.304413	29.084898	6.787243	43.990646	30.032508	24.805756	4.175748	45.182079	29.808281	13.717615	-4.173714	52.475254	36.178546	1.395757	-8.483593	61.811177	43.375742
-1.265000	-160.147433	-5.066637	-73.570646	0.080325	-0.182135	-0.016321	101.047646	5.123144	-0.636511	13.997152	12.573185	-25.956904	-42.315048	29.085172	6.797521	43.989558	30.031739	24.802714	4.176503	45.191617	29.815466	13.705669	-4.174548	52.489789	36.186960	1.380226	-8.482655	61.827150	43.383621
-1.255000	-160.147433	-5.066637	-73.570646	0.080325	-0.182137	-0.016327	101.043938	5.118346	-0.634519	13.976106	12.561988	-25.964752	-42.319044	29.082676	6.809595	43.996011	30.040296	24.796316	4.178141	45.201778	29.826240	13.693638	-4.174988	52.502661	36.196731	1.372554	-8.486276	61.836035	43.386009
-1.245000	-160.147433	-5.066637	-73.570646	0.080324	-0.182141	-0.016334	101.041084	5.113186	-0.634235	13.951746	12.546287	-25.967315	-42.317806	29.077650	6.821671	44.007777	30.055544	24.786508	4.180487	45.211162	29.838366	13.682368	-4.175066	52.512632	36.207436	1.373055	-8.494538	61.837777	43.384401
